Patient4_TMGait_0pt6_02_right_41_GRF.mot
version=1
nRows=32
nColumns=19
inDegrees=no
endheader
time	F1x	F1y	F1z	M1x	M1y	M1z	F2x	F2y	F2z	M2x	M2y	M2z	EC1x	EC1y	EC1z	EC2x	EC2y	EC2z
49.45	-34.1387	787.3761	86.1669	-293.3791	-108.1605	852.4979	-1.6254	4.8628	-11.7547	4.8112	9.9525	4.2306	-0.0592	0.0182	-0.0073	-0.0462	0.0165	0.9585
49.4626	-28.6058	773.6836	83.5304	-288.1698	-101.9265	838.1277	-1.2093	4.1433	-7.9774	3.5436	6.8773	3.8877	-0.0592	0.0182	-0.0073	-0.0462	0.0165	0.9585
49.4751	-22.8941	758.1074	80.5324	-282.2782	-95.3058	820.3847	-0.87994	3.5753	-4.7899	2.4899	4.2804	3.6484	-0.0592	0.0182	-0.0073	-0.0462	0.0165	0.9585
49.4877	-17.2881	741.906	77.2573	-276.1894	-88.5834	800.6177	-0.64848	3.1889	-2.3724	1.7066	2.3163	3.516	-0.0592	0.0182	-0.0073	-0.0462	0.0165	0.9585
49.5003	-11.9465	726.4332	73.8223	-270.4108	-81.9664	780.4796	-0.49521	2.9525	-0.71206	1.1805	0.97337	3.4483	-0.0592	0.0182	-0.0073	-0.0462	0.0165	0.9585
49.5129	-6.9276	712.8926	70.3829	-265.3806	-75.6287	761.5209	-0.42146	2.8278	0.30077	0.86694	0.16544	3.4283	-0.0592	0.0182	-0.0073	-0.0462	0.0165	0.9585
49.5254	-2.2503	702.1752	67.1346	-261.4088	-69.7447	744.9666	-0.4038	2.7409	0.81864	0.69961	-0.23781	3.3845	-0.0592	0.0182	-0.0073	-0.0462	0.0165	0.9585
49.538	2.1366	694.8145	64.266	-258.6637	-64.4529	731.5802	-0.44939	2.6134	0.99432	0.60893	-0.36256	3.2478	-0.0592	0.0182	-0.0073	-0.0462	0.0165	0.9585
49.5506	6.2577	690.9792	61.9538	-257.179	-59.8865	721.6941	-0.53377	2.3468	0.95795	0.52499	-0.31862	2.9079	-0.0592	0.0182	-0.0073	-0.0462	0.0165	0.9585
49.5631	10.1537	690.5044	60.2916	-256.8785	-56.0986	715.2331	-0.65103	1.8462	0.81275	0.38587	-0.18757	2.2711	-0.0592	0.0182	-0.0073	-0.0462	0.0165	0.9585
49.5757	13.8434	692.964	59.3286	-257.5968	-53.1108	711.8106	-0.7766	1.0108	0.62947	0.1366	-0.027998	1.2266	-0.0592	0.0182	-0.0073	-0.0462	0.0165	0.9585
49.5883	17.3347	697.7225	59.0322	-259.1014	-50.8758	710.7873	-0.88335	-0.23851	0.45857	-0.26254	0.11598	-0.32523	-0.0592	0.0182	-0.0073	-0.0462	0.0165	0.9585
49.6009	20.6429	704.0378	59.3481	-261.1279	-49.324	711.3907	-0.94719	-1.9331	0.3305	-0.8262	0.20976	-2.426	-0.0592	0.0182	-0.0073	-0.0462	0.0165	0.9585
49.6134	23.8249	711.1939	60.1713	-263.4258	-48.3285	712.8645	-0.90916	-4.0093	0.26405	-1.5315	0.21217	-5.0032	-0.0592	0.0182	-0.0073	-0.0462	0.0165	0.9585
49.626	26.9737	718.5493	61.4209	-265.7739	-47.7738	714.5278	-0.71437	-6.2289	0.26957	-2.2952	0.085835	-7.756	-0.0592	0.0182	-0.0073	-0.0462	0.0165	0.9585
49.6386	30.1887	725.5796	62.9905	-267.9926	-47.519	715.8378	-0.27111	-8.1169	0.35875	-2.9502	-0.21519	-10.1057	-0.0592	0.0182	-0.0073	-0.0462	0.0165	0.9585
49.6511	33.5804	731.8528	64.7978	-269.9322	-47.4441	716.3599	0.49303	-8.8549	0.53745	-3.2111	-0.72608	-11.0453	-0.0592	0.0182	-0.0073	-0.0462	0.0165	0.9585
49.6637	37.2381	737.0317	66.7288	-271.4761	-47.4105	715.783	1.6658	-7.2502	0.80995	-2.6575	-1.4773	-9.1238	-0.0592	0.0182	-0.0073	-0.0462	0.0165	0.9585
49.6763	41.2145	740.8477	68.6987	-272.5311	-47.3165	713.8796	3.2858	-1.6781	1.1608	-0.72097	-2.4525	-2.3535	-0.0592	0.0182	-0.0073	-0.0462	0.0165	0.9585
49.6889	45.5226	743.0597	70.601	-273.016	-47.0528	710.473	5.321	9.8164	1.5554	3.2831	-3.5827	11.6598	-0.0592	0.0182	-0.0073	-0.0462	0.0165	0.9585
49.7014	50.1159	743.4259	72.3393	-272.8504	-46.5438	705.3986	7.5931	29.317	1.9198	10.0821	-4.6988	35.4807	-0.0592	0.0182	-0.0073	-0.0462	0.0165	0.9585
49.714	54.8905	741.6675	73.7593	-271.9423	-45.6883	698.464	9.7163	58.6007	2.1374	20.2945	-5.5022	71.2993	-0.0592	0.0182	-0.0073	-0.0462	0.0165	0.9585
49.7266	59.6471	737.3364	74.6732	-270.1415	-44.3902	689.358	11.0051	98.3994	2.0271	34.1724	-5.5168	120.0238	-0.0592	0.0182	-0.0073	-0.0462	0.0165	0.9585
49.7391	64.1209	729.6885	74.8161	-267.194	-42.5093	677.5037	10.4075	147.3345	1.3391	51.2291	-4.0719	180.0001	-0.0592	0.0182	-0.0073	-0.0462	0.0165	0.9585
49.7517	67.9595	717.7236	73.9115	-262.747	-39.9351	662.1019	6.7052	200.8047	-0.18791	69.8543	-0.46857	245.6385	-0.0592	0.0182	-0.0073	-0.0462	0.0165	0.9585
49.7643	70.8247	700.3782	71.7252	-256.4215	-36.6048	642.2793	-0.18387	250.9651	-2.7657	87.318	5.4931	307.33	-0.0592	0.0182	-0.0073	-0.0462	0.0165	0.9585
49.7769	72.4599	676.8563	68.1904	-247.9266	-32.5868	617.3908	-8.4169	290.8383	-6.5128	101.2048	13.1773	356.354	-0.0592	0.0182	-0.0073	-0.0462	0.0165	0.9585
49.7894	72.7498	646.9432	63.4428	-237.1589	-28.0708	587.294	-16.5039	319.2077	-10.526	111.1094	20.9973	390.9694	-0.0592	0.0182	-0.0073	-0.0462	0.0165	0.9585
49.802	71.7765	610.8594	57.8411	-224.1595	-23.3576	552.193	-23.6533	339.3512	-14.3228	118.1776	28.0983	415.0079	-0.0592	0.0182	-0.0073	-0.0462	0.0165	0.9585
49.8146	69.6923	569.0627	51.7819	-209.0509	-18.7378	512.4977	-29.5571	355.9363	-17.2604	124.0524	33.6689	434.1515	-0.0592	0.0182	-0.0073	-0.0462	0.0165	0.9585
49.8271	66.6276	522.0946	45.5823	-191.9982	-14.4373	468.6632	-34.142	373.0031	-19.2931	130.1244	37.6365	453.3864	-0.0592	0.0182	-0.0073	-0.0462	0.0165	0.9585
49.8397	62.5571	470.6702	39.4574	-173.2405	-10.6402	421.3308	-37.4465	393.2045	-20.457	137.2864	40.1106	475.9483	-0.0592	0.0182	-0.0073	-0.0462	0.0165	0.9585
